# xmcd
#
# Track frame offsets:
#	150
#	14737
#	30048
#	44595
#	57792
#	82717
#
# Disc length: 4440 seconds
#
# Revision: 3
# Processed by: cddbd v1.5.2PL0 Copyright (c) Steve Scherf et al.
# Submitted via: audiograbber 1.83.01
#
DISCID=3a115606
DTITLE=No Angels - No Angel (It's All In Your Mind)/Venus
DYEAR=2003
DGENRE=
TTITLE0=No Angel (It's All In Your Mind) (Radio Version)
TTITLE1=No Angel (It's All In Your Mind) (Video Mix)
TTITLE2=No Angel (It's All In Your Mind) (Rock Version)
TTITLE3=Venus (Main Version)
TTITLE4=Venus (House Version)
TTITLE5=Data Track
EXTD=
EXTT0=
EXTT1=
EXTT2=
EXTT3=
EXTT4=
EXTT5=
PLAYORDER=
